<svg width="500" height="500" viewBox="0 0 500 500" fill="none" xmlns="http://www.w3.org/2000/svg">
<path d="M359.5 482.5C359.5 489.127 316.967 494.5 264.5 494.5C212.033 494.5 169.5 489.127 169.5 482.5C169.5 475.873 212.033 470.5 264.5 470.5C316.967 470.5 359.5 475.873 359.5 482.5Z" fill="black" fill-opacity="0.5"/>
<path d="M38.6899 426.84H468.74" stroke="#263238" stroke-linecap="round" stroke-linejoin="round"/>
<path d="M369.65 281.77V281.88C369.65 282.06 369.69 282.25 369.77 282.45C370.217 284.641 370.551 286.854 370.77 289.08C370.96 290.99 371.11 293.17 371.15 295.6C371.245 301.216 370.86 306.83 370 312.38C369.78 313.84 369.52 315.38 369.21 316.92C368.72 319.46 368.12 322.12 367.38 324.87C367.05 326.15 366.67 327.46 366.27 328.78L365.8 330.39C365.62 331.04 365.44 331.69 365.27 332.39C364.12 336.833 363.203 341.332 362.52 345.87C361.67 351.52 361.14 357.13 360.85 362.44C360.46 369.52 360.48 376.06 360.65 381.44C360.645 381.53 360.645 381.62 360.65 381.71C360.83 387.18 361.17 391.47 361.4 393.91C361.53 395.34 361.62 396.15 361.63 396.2" stroke="#263238" stroke-linecap="round" stroke-linejoin="round"/>
<path d="M369.68 281.91C368.183 280.579 366.379 279.641 364.43 279.18L369.68 281.91Z" fill="white"/>
<path d="M369.68 281.91C368.183 280.579 366.379 279.641 364.43 279.18" stroke="#263238" stroke-linecap="round" stroke-linejoin="round"/>
<path d="M370.8 289.11L373.46 286.7" stroke="#263238" stroke-linecap="round" stroke-linejoin="round"/>
<path d="M367.41 324.88C367.27 324.178 367.063 323.492 366.79 322.83C366.396 321.86 365.86 320.953 365.2 320.14C364.707 319.529 364.147 318.975 363.53 318.49" stroke="#263238" stroke-linecap="round" stroke-linejoin="round"/>
<path d="M365.28 332.38C365.657 331.446 366.221 330.599 366.939 329.893C367.656 329.186 368.511 328.633 369.45 328.27" stroke="#263238" stroke-linecap="round" stroke-linejoin="round"/>
<path d="M360.66 369.58C361.55 368.5 362.22 364.41 362.58 362.21C362.67 361.69 362.74 361.21 362.81 360.92" fill="white"/>
<path d="M360.66 369.58C361.55 368.5 362.22 364.41 362.58 362.21C362.67 361.69 362.74 361.21 362.81 360.92" stroke="#263238" stroke-linecap="round" stroke-linejoin="round"/>
<path d="M353.81 377C354.106 376.97 354.404 376.97 354.7 377C356.01 377.127 357.26 377.609 358.317 378.393C359.374 379.177 360.198 380.234 360.7 381.45" fill="white"/>
<path d="M353.81 377C354.106 376.97 354.404 376.97 354.7 377C356.01 377.127 357.26 377.609 358.317 378.393C359.374 379.177 360.198 380.234 360.7 381.45" stroke="#263238" stroke-linecap="round" stroke-linejoin="round"/>
<path d="M369.24 317C369.24 317 369.71 300.77 360.8 294.88" stroke="#263238" stroke-linecap="round" stroke-linejoin="round"/>
<path d="M370 351.79C371.17 355.58 363 362.79 363 362.79C363 362.79 352.21 361.44 351 357.66C349.79 353.88 352.56 347.66 357.8 346.06C363.04 344.46 368.87 348 370 351.79Z" fill="#0088FF"/>
<path d="M379.09 305.86C378.09 309.86 370.33 312.73 370.33 312.73C370.33 312.73 365 306.5 366 302.48C367 298.46 371.31 294.04 374.93 294.97C378.55 295.9 380.13 301.84 379.09 305.86Z" fill="#0088FF"/>
<path d="M348.1 365.93C352.95 367.81 355.92 376.39 355.92 376.39C355.92 376.39 347.92 380.7 343.08 378.81C338.24 376.92 333.08 371.6 334.48 368.05C335.88 364.5 343.25 364 348.1 365.93Z" fill="#0088FF"/>
<path d="M358.73 318.73C359.712 319.555 360.837 320.193 362.05 320.61C362.659 320.807 363.31 320.833 363.933 320.685C364.555 320.537 365.125 320.22 365.58 319.77C366.58 318.58 366.34 316.77 365.69 315.28C364.39 312.43 359.61 307.58 355.94 308.97C350.64 311 356.37 317 358.73 318.73Z" fill="#0088FF"/>
<path d="M369.58 326C368.88 326.86 368.14 327.95 368.53 329C368.747 329.441 369.105 329.798 369.546 330.015C369.987 330.232 370.488 330.297 370.97 330.2C371.929 329.972 372.825 329.532 373.59 328.91C375.46 327.61 379.3 324.91 376.85 322.34C374.4 319.77 371 324.19 369.58 326Z" fill="#0088FF"/>
<path d="M353.93 289.73C353.526 289.754 353.14 289.903 352.826 290.158C352.512 290.413 352.286 290.76 352.18 291.15C352.02 292.08 352.79 292.89 353.53 293.46C355.39 294.9 360.98 298.76 362.22 295.03C363.4 291.51 356.39 289.46 353.93 289.73Z" fill="#0088FF"/>
<path d="M364.22 277.47C363.07 277.58 361.92 277.16 360.76 277.23C359.6 277.3 358.33 278.23 358.58 279.37C358.83 280.51 360.12 280.76 361.18 280.82C363.005 280.937 364.837 280.813 366.63 280.45C367.054 280.41 367.448 280.21 367.73 279.89C368.2 279.2 367.46 278.28 366.66 278.04C365.839 277.931 365.031 277.736 364.25 277.46L364.22 277.47Z" fill="#0088FF"/>
<path d="M375.48 285.4C376.63 285.4 377.75 284.94 378.91 284.93C380.07 284.92 381.41 285.77 381.22 286.93C381.03 288.09 379.79 288.42 378.73 288.55C376.918 288.79 375.082 288.79 373.27 288.55C372.841 288.54 372.432 288.365 372.13 288.06C371.62 287.41 372.3 286.44 373.07 286.14C373.885 285.988 374.68 285.743 375.44 285.41L375.48 285.4Z" fill="#0088FF"/>
<path d="M374.34 370.62C374.605 370.344 374.959 370.17 375.34 370.13C375.597 370.155 375.837 370.268 376.02 370.45C376.202 370.633 376.316 370.873 376.34 371.13C376.395 371.624 376.334 372.124 376.16 372.59C375.37 375.22 366.57 394.21 364.54 390.8C363.35 388.8 366.29 382.11 367.16 380.22C368.82 376.532 371.271 373.255 374.34 370.62Z" fill="#0088FF"/>
<path d="M370.05 283C370.05 283 369.52 278.39 370.63 278" stroke="#263238" stroke-linecap="round" stroke-linejoin="round"/>
<path d="M369.07 278.19C369.637 276.562 370.615 275.109 371.91 273.97C373.3 272.97 375.53 272.89 376.54 274.28C377.67 275.83 376.54 278.18 374.81 279.01C373.08 279.84 371.04 279.59 369.14 279.32C369.14 279.04 369.14 278.76 369.14 278.48L369.07 278.19Z" fill="#0088FF"/>
<path d="M373.81 426.61C364.383 428.2 354.757 428.2 345.33 426.61L334.25 393.92H384.89L373.81 426.61Z" fill="white" stroke="#263238" stroke-linecap="round" stroke-linejoin="round"/>
<path d="M180.55 190.43V190.54C180.59 190.72 180.63 190.91 180.67 191.11C181.123 193.3 181.457 195.513 181.67 197.74C181.86 199.65 182 201.83 182.05 204.26C182.153 209.862 181.778 215.462 180.93 221C180.71 222.46 180.45 224 180.14 225.54C179.65 228.08 179.04 230.74 178.31 233.49C177.97 234.77 177.6 236.08 177.2 237.4C177.04 237.94 176.88 238.47 176.73 239.01C176.58 239.55 176.36 240.31 176.19 241.01C175.041 245.453 174.124 249.952 173.44 254.49C172.59 260.14 172.07 265.75 171.78 271.06C171.39 278.14 171.4 284.68 171.58 290.06V290.33C171.77 295.8 172.1 300.09 172.34 302.54C172.46 303.96 172.56 304.77 172.56 304.82" stroke="#263238" stroke-linecap="round" stroke-linejoin="round"/>
<path d="M180.57 190.57C179.853 189.942 179.068 189.395 178.23 188.94C177.306 188.453 176.325 188.084 175.31 187.84" fill="white"/>
<path d="M180.57 190.57C179.853 189.942 179.068 189.395 178.23 188.94C177.306 188.453 176.325 188.084 175.31 187.84" stroke="#263238" stroke-linecap="round" stroke-linejoin="round"/>
<path d="M181.69 197.77L184.36 195.36" stroke="#263238" stroke-linecap="round" stroke-linejoin="round"/>
<path d="M178.31 233.54C178.167 232.838 177.956 232.151 177.68 231.49C177.286 230.52 176.75 229.613 176.09 228.8C175.597 228.189 175.037 227.636 174.42 227.15" stroke="#263238" stroke-linecap="round" stroke-linejoin="round"/>
<path d="M176.18 241C176.553 240.066 177.115 239.218 177.831 238.511C178.547 237.804 179.401 237.252 180.34 236.89" stroke="#263238" stroke-linecap="round" stroke-linejoin="round"/>
<path d="M171.55 278.24C172.44 277.16 173.12 273.07 173.48 270.87C173.56 270.35 173.64 269.87 173.7 269.58" fill="white"/>
<path d="M171.55 278.24C172.44 277.16 173.12 273.07 173.48 270.87C173.56 270.35 173.64 269.87 173.7 269.58" stroke="#263238" stroke-linecap="round" stroke-linejoin="round"/>
<path d="M164.7 285.62C164.999 285.59 165.301 285.59 165.6 285.62C166.909 285.751 168.158 286.233 169.214 287.017C170.271 287.8 171.095 288.856 171.6 290.07" fill="white"/>
<path d="M164.7 285.62C164.999 285.59 165.301 285.59 165.6 285.62C166.909 285.751 168.158 286.233 169.214 287.017C170.271 287.8 171.095 288.856 171.6 290.07" stroke="#263238" stroke-linecap="round" stroke-linejoin="round"/>
<path d="M180.13 225.62C180.13 225.62 180.61 209.39 171.69 203.5" stroke="#263238" stroke-linecap="round" stroke-linejoin="round"/>
<path d="M180.94 260.45C182.1 264.24 173.94 271.45 173.94 271.45C173.94 271.45 163.14 270.1 161.94 266.32C160.74 262.54 163.51 256.32 168.74 254.72C173.97 253.12 179.77 256.67 180.94 260.45Z" fill="#0088FF"/>
<path d="M190 214.52C189 218.52 181.24 221.39 181.24 221.39C181.24 221.39 175.85 215.16 176.89 211.14C177.93 207.12 182.19 202.7 185.81 203.63C189.43 204.56 191 210.5 190 214.52Z" fill="#0088FF"/>
<path d="M159 274.59C163.85 276.48 166.83 285.05 166.83 285.05C166.83 285.05 158.83 289.36 153.98 287.47C149.13 285.58 143.98 280.26 145.39 276.71C146.8 273.16 154.14 272.7 159 274.59Z" fill="#0088FF"/>
<path d="M169.63 227.39C170.608 228.215 171.73 228.853 172.94 229.27C173.549 229.467 174.2 229.493 174.823 229.345C175.445 229.197 176.015 228.88 176.47 228.43C177.47 227.24 177.23 225.43 176.58 223.94C175.28 221.09 170.51 216.24 166.83 217.63C161.54 219.64 167.26 225.64 169.63 227.39Z" fill="#0088FF"/>
<path d="M180.47 234.67C179.78 235.53 179.04 236.67 179.42 237.67C179.637 238.111 179.995 238.468 180.436 238.685C180.877 238.902 181.378 238.967 181.86 238.87C182.82 238.644 183.716 238.203 184.48 237.58C186.35 236.29 190.19 233.58 187.74 231.01C185.29 228.44 181.94 232.85 180.47 234.67Z" fill="#0088FF"/>
<path d="M164.82 198.39C164.417 198.415 164.031 198.565 163.718 198.82C163.404 199.074 163.177 199.421 163.07 199.81C162.91 200.74 163.68 201.55 164.43 202.12C166.29 203.56 171.87 207.42 173.12 203.69C174.29 200.17 167.29 198.12 164.82 198.39Z" fill="#0088FF"/>
<path d="M175.11 186.13C173.96 186.24 172.81 185.82 171.66 185.89C170.51 185.96 169.22 186.89 169.48 188.03C169.74 189.17 171.01 189.42 172.08 189.48C173.902 189.597 175.731 189.473 177.52 189.11C177.947 189.07 178.344 188.87 178.63 188.55C179.09 187.86 178.35 186.94 177.56 186.7C176.735 186.591 175.924 186.397 175.14 186.12L175.11 186.13Z" fill="#0088FF"/>
<path d="M186.37 194.06C187.53 194.06 188.65 193.6 189.8 193.59C190.95 193.58 192.3 194.43 192.12 195.59C191.94 196.75 190.68 197.08 189.62 197.21C187.808 197.45 185.972 197.45 184.16 197.21C183.731 197.2 183.322 197.024 183.02 196.72C182.51 196.07 183.19 195.1 183.97 194.8C184.784 194.645 185.579 194.4 186.34 194.07L186.37 194.06Z" fill="#0088FF"/>
<path d="M185.23 279.28C185.496 279.005 185.85 278.832 186.23 278.79C186.485 278.82 186.722 278.935 186.904 279.116C187.085 279.298 187.2 279.535 187.23 279.79C187.282 280.285 187.217 280.785 187.04 281.25C186.26 283.88 177.45 302.87 175.43 299.46C174.23 297.46 177.17 290.77 178.04 288.88C179.703 285.191 182.158 281.914 185.23 279.28Z" fill="#0088FF"/>
<path d="M180.94 191.68C180.94 191.68 180.41 187.07 181.53 186.68" stroke="#263238" stroke-linecap="round" stroke-linejoin="round"/>
<path d="M180 186.85C180.56 185.218 181.539 183.763 182.84 182.63C184.23 181.63 186.45 181.55 187.46 182.94C188.59 184.49 187.46 186.84 185.73 187.67C184 188.5 181.97 188.25 180.07 187.98C180.07 187.7 180.07 187.42 180.07 187.14L180 186.85Z" fill="#0088FF"/>
<path d="M53.8501 300.97V202.16" stroke="#263238" stroke-linecap="round" stroke-linejoin="round"/>
<path d="M362.35 300.97H350.14" stroke="#263238" stroke-linecap="round" stroke-linejoin="round"/>
<path d="M458.1 300.97H433.23" stroke="#263238" stroke-linecap="round" stroke-linejoin="round"/>
<path d="M349.02 150.86H393.09V108.88" stroke="#263238" stroke-linecap="round" stroke-linejoin="round"/>
<path d="M92.1602 138.04H138.98V172.19H190.3" stroke="#263238" stroke-linecap="round" stroke-linejoin="round"/>
<path d="M64.54 253.69V178.23" stroke="#263238" stroke-linecap="round" stroke-linejoin="round"/>
<path d="M85.4602 145.48V204.62" stroke="#263238" stroke-linecap="round" stroke-linejoin="round"/>
<path d="M106.37 145.48V197.76" stroke="#263238" stroke-linecap="round" stroke-linejoin="round"/>
<path d="M127.28 145.48V236.93" stroke="#263238" stroke-linecap="round" stroke-linejoin="round"/>
<path d="M227.45 132.51V72.3799H312.58V132.51" stroke="#263238" stroke-linecap="round" stroke-linejoin="round"/>
<path d="M233.69 102.25V79.5198H249.43" stroke="#263238" stroke-linecap="round" stroke-linejoin="round"/>
<path d="M252.89 102.25V79.5198H268.63" stroke="#263238" stroke-linecap="round" stroke-linejoin="round"/>
<path d="M272.09 102.25V79.5198H287.83" stroke="#263238" stroke-linecap="round" stroke-linejoin="round"/>
<path d="M291.29 102.25V79.5198H307.03" stroke="#263238" stroke-linecap="round" stroke-linejoin="round"/>
<path d="M233.69 132.51V109.78H249.43" stroke="#263238" stroke-linecap="round" stroke-linejoin="round"/>
<path d="M252.89 132.51V109.78H268.63" stroke="#263238" stroke-linecap="round" stroke-linejoin="round"/>
<path d="M272.09 132.51V109.78H287.83" stroke="#263238" stroke-linecap="round" stroke-linejoin="round"/>
<path d="M291.29 132.51V109.78H307.03" stroke="#263238" stroke-linecap="round" stroke-linejoin="round"/>
<path d="M399.91 114.08V189.43" stroke="#263238" stroke-linecap="round" stroke-linejoin="round"/>
<path d="M430.82 295.45H433.23" stroke="#263238" stroke-linecap="round" stroke-linejoin="round"/>
<path d="M418.44 135.72V220.08" stroke="#263238" stroke-linecap="round" stroke-linejoin="round"/>
<path d="M436.98 273.91V295.45H451.77" stroke="#263238" stroke-linecap="round" stroke-linejoin="round"/>
<path d="M436.98 163.22V220.51" stroke="#263238" stroke-linecap="round" stroke-linejoin="round"/>
<path d="M455.51 206.69V295.45H458.88" stroke="#263238" stroke-linecap="round" stroke-linejoin="round"/>
<path d="M229.69 302.78H38.6899V426.84H229.69V302.78Z" fill="white" stroke="#263238" stroke-linecap="round" stroke-linejoin="round"/>
<path d="M38.6899 302.78L134.19 364.81L229.69 302.78H38.6899Z" fill="white" stroke="#263238" stroke-linecap="round" stroke-linejoin="round"/>
<path d="M105.48 346.16L38.6899 426.84" stroke="#263238" stroke-linecap="round" stroke-linejoin="round"/>
<path d="M163.42 346.16L230.21 426.84" stroke="#263238" stroke-linecap="round" stroke-linejoin="round"/>
<path d="M331.9 144.48H287.5C286.221 144.482 284.966 144.825 283.865 145.476C282.765 146.127 281.858 147.06 281.24 148.18C280.149 150.149 278.551 151.79 276.611 152.933C274.672 154.076 272.461 154.678 270.21 154.678C267.959 154.678 265.749 154.076 263.809 152.933C261.87 151.79 260.271 150.149 259.18 148.18C258.567 147.046 257.659 146.099 256.552 145.439C255.444 144.778 254.179 144.43 252.89 144.43H208.54C207.323 144.414 206.114 144.638 204.983 145.09C203.853 145.541 202.822 146.21 201.95 147.06C201.078 147.91 200.382 148.923 199.902 150.042C199.421 151.16 199.166 152.363 199.15 153.58V404C199.184 406.458 200.192 408.802 201.953 410.517C203.713 412.232 206.082 413.179 208.54 413.15H331.9C334.359 413.179 336.729 412.233 338.491 410.518C340.253 408.802 341.263 406.459 341.3 404V153.63C341.266 151.17 340.257 148.825 338.494 147.109C336.731 145.394 334.36 144.448 331.9 144.48Z" fill="#0088FF"/>
<path d="M345.63 150.86C345.635 149.173 345.308 147.502 344.666 145.942C344.024 144.382 343.08 142.964 341.889 141.769C340.698 140.574 339.283 139.626 337.725 138.98C336.167 138.333 334.497 138 332.81 138H207.64C205.957 137.999 204.29 138.329 202.735 138.972C201.179 139.615 199.766 140.559 198.576 141.748C197.385 142.938 196.441 144.351 195.796 145.906C195.152 147.46 194.82 149.127 194.82 150.81V414C194.82 417.397 196.17 420.656 198.572 423.058C200.974 425.46 204.233 426.81 207.63 426.81H332.81C336.208 426.81 339.468 425.461 341.872 423.059C344.276 420.657 345.627 417.398 345.63 414V150.86ZM341.3 404C341.263 406.459 340.253 408.802 338.491 410.518C336.729 412.233 334.359 413.179 331.9 413.15H208.54C206.082 413.179 203.713 412.232 201.953 410.517C200.192 408.802 199.184 406.458 199.15 404V153.63C199.166 152.413 199.421 151.21 199.901 150.092C200.382 148.973 201.078 147.96 201.95 147.11C202.822 146.26 203.853 145.591 204.983 145.14C206.114 144.688 207.323 144.464 208.54 144.48H252.91C254.198 144.48 255.462 144.828 256.568 145.488C257.673 146.149 258.58 147.096 259.19 148.23C260.281 150.199 261.879 151.84 263.819 152.983C265.759 154.126 267.969 154.728 270.22 154.728C272.471 154.728 274.681 154.126 276.621 152.983C278.561 151.84 280.159 150.199 281.25 148.23C281.866 147.109 282.773 146.174 283.874 145.523C284.975 144.872 286.231 144.529 287.51 144.53H331.91C333.127 144.514 334.336 144.738 335.467 145.19C336.598 145.641 337.628 146.31 338.5 147.16C339.372 148.01 340.068 149.023 340.549 150.142C341.029 151.26 341.284 152.463 341.3 153.68V404Z" fill="#263238"/>
<path opacity="0.2" d="M303.1 138.04L219.95 426.83L252.97 426.8L333.04 138.04H303.1Z" fill="white"/>
<path opacity="0.2" d="M290.7 138.04L202.79 426.84L207.6 426.81L293.86 138.04H290.7Z" fill="white"/>
<path d="M292.65 352.73C292.711 355.592 292.199 358.438 291.144 361.1C290.089 363.762 288.511 366.185 286.505 368.228C284.499 370.27 282.104 371.891 279.462 372.994C276.819 374.097 273.983 374.66 271.12 374.65C265.278 374.628 259.676 372.323 255.51 368.228C251.343 364.132 248.943 358.571 248.82 352.73C248.76 349.868 249.273 347.023 250.329 344.363C251.385 341.703 252.962 339.28 254.969 337.239C256.975 335.197 259.369 333.577 262.011 332.475C264.652 331.373 267.488 330.81 270.35 330.82C276.191 330.84 281.793 333.142 285.96 337.236C290.126 341.33 292.527 346.89 292.65 352.73Z" fill="white" stroke="#263238" stroke-linecap="round" stroke-linejoin="round"/>
<path d="M263.55 369.09C261.515 368.337 259.649 367.188 258.06 365.71C256.459 364.171 255.219 362.296 254.43 360.22C253.531 357.893 253.087 355.415 253.12 352.92C253.107 350.793 253.484 348.682 254.23 346.69C254.908 344.85 255.926 343.154 257.23 341.69C259.801 338.878 263.121 336.859 266.8 335.87C268.606 335.383 270.469 335.138 272.34 335.14C273.893 335.133 275.442 335.318 276.95 335.69C278.405 336.047 279.798 336.624 281.08 337.4C282.349 338.163 283.487 339.125 284.45 340.25C285.453 341.463 286.22 342.854 286.71 344.35C287.271 346.057 287.548 347.844 287.53 349.64C287.509 353.112 286.258 356.463 284 359.1C283.029 360.201 281.88 361.131 280.6 361.85C279.497 362.483 278.252 362.827 276.98 362.85C276.102 362.862 275.245 362.584 274.54 362.06C274.186 361.798 273.898 361.458 273.699 361.066C273.499 360.673 273.394 360.24 273.39 359.8C272.734 360.797 271.834 361.61 270.775 362.162C269.716 362.713 268.533 362.985 267.34 362.95C266.401 362.992 265.465 362.823 264.6 362.456C263.735 362.09 262.963 361.534 262.34 360.83C261.092 359.379 260.432 357.513 260.49 355.6C260.498 354.025 260.772 352.464 261.3 350.98C261.826 349.485 262.57 348.076 263.51 346.8C264.446 345.546 265.64 344.506 267.01 343.75C268.38 342.977 269.927 342.574 271.5 342.58C272.594 342.569 273.673 342.83 274.64 343.34C275.579 343.841 276.341 344.62 276.82 345.57L277.02 344.9C277.179 344.431 277.519 344.044 277.963 343.825C278.407 343.605 278.921 343.571 279.39 343.73C279.572 343.792 279.743 343.879 279.9 343.99C280.049 344.109 280.168 344.262 280.246 344.436C280.324 344.61 280.36 344.8 280.35 344.99C280.35 345.177 280.32 345.363 280.26 345.54L277.02 356.32C276.734 357.141 276.55 357.994 276.47 358.86C276.44 359.022 276.451 359.188 276.5 359.345C276.55 359.501 276.638 359.643 276.755 359.758C276.873 359.872 277.017 359.956 277.175 360.002C277.333 360.048 277.499 360.054 277.66 360.02C278.807 359.947 279.881 359.435 280.66 358.59C281.74 357.522 282.57 356.228 283.09 354.8C283.711 353.241 284.03 351.578 284.03 349.9C284.043 348.422 283.827 346.952 283.39 345.54C283.022 344.323 282.44 343.182 281.67 342.17C280.941 341.249 280.058 340.46 279.06 339.84C278.065 339.213 276.979 338.744 275.84 338.45C274.672 338.143 273.468 337.988 272.26 337.99C270.728 337.992 269.203 338.208 267.73 338.63C266.213 339.06 264.768 339.71 263.44 340.56C262.101 341.405 260.889 342.435 259.84 343.62C258.759 344.869 257.918 346.306 257.36 347.86C256.732 349.552 256.417 351.345 256.43 353.15C256.397 355.288 256.785 357.411 257.57 359.4C258.247 361.122 259.315 362.662 260.69 363.9C262.018 365.053 263.552 365.945 265.21 366.53C266.96 367.149 268.804 367.46 270.66 367.45C272.644 367.45 274.616 367.15 276.51 366.56C276.699 366.492 276.899 366.458 277.1 366.46C277.288 366.457 277.474 366.494 277.646 366.568C277.818 366.642 277.973 366.752 278.1 366.89C278.228 367.023 278.328 367.18 278.395 367.351C278.462 367.523 278.494 367.706 278.49 367.89C278.514 368.181 278.432 368.471 278.259 368.706C278.087 368.941 277.835 369.106 277.55 369.17C275.19 369.892 272.738 370.269 270.27 370.29C267.977 370.287 265.702 369.881 263.55 369.09ZM271.81 358.72C272.799 358.01 273.532 357 273.9 355.84L275.99 348.49L275.85 348.19C275.72 347.949 275.562 347.724 275.38 347.52C275.129 347.231 274.855 346.963 274.56 346.72C274.185 346.421 273.763 346.188 273.31 346.03C272.127 345.617 270.831 345.663 269.68 346.16C269.049 346.427 268.471 346.803 267.97 347.27C267.45 347.756 266.987 348.299 266.59 348.89C266.193 349.505 265.858 350.159 265.59 350.84C265.309 351.522 265.091 352.228 264.94 352.95C264.789 353.637 264.712 354.337 264.71 355.04C264.701 355.491 264.728 355.943 264.79 356.39C264.836 356.788 264.923 357.18 265.05 357.56C265.16 357.914 265.318 358.25 265.52 358.56C265.701 358.839 265.932 359.083 266.2 359.28C266.486 359.487 266.808 359.64 267.15 359.73C267.549 359.847 267.964 359.901 268.38 359.89C269.631 359.906 270.852 359.504 271.85 358.75L271.81 358.72Z" fill="#0088FF" stroke="#263238" stroke-linecap="round" stroke-linejoin="round"/>
<path d="M292.16 277.6C292.22 280.462 291.707 283.307 290.651 285.967C289.595 288.628 288.018 291.05 286.011 293.091C284.005 295.133 281.611 296.753 278.969 297.855C276.328 298.957 273.492 299.52 270.63 299.51C264.789 299.491 259.187 297.188 255.02 293.094C250.854 289.001 248.453 283.44 248.33 277.6C248.267 274.737 248.778 271.891 249.833 269.229C250.888 266.566 252.465 264.142 254.472 262.099C256.479 260.056 258.874 258.436 261.517 257.333C264.16 256.231 266.997 255.669 269.86 255.68C275.702 255.702 281.304 258.007 285.471 262.102C289.637 266.198 292.038 271.759 292.16 277.6Z" fill="white" stroke="#263238" stroke-linecap="round" stroke-linejoin="round"/>
<path d="M284 275.6C277.13 271.1 263.66 271.1 257.11 275.6C255.912 275.825 254.835 276.472 254.075 277.425C253.315 278.378 252.923 279.572 252.97 280.79C253.07 283.7 265.16 283.7 265.06 280.79C265.001 279.574 264.536 278.412 263.74 277.49C268.274 276.51 272.966 276.51 277.5 277.49C276.762 278.428 276.38 279.597 276.42 280.79C276.52 283.7 288.61 283.7 288.5 280.79C288.443 279.545 287.968 278.355 287.151 277.413C286.335 276.472 285.225 275.833 284 275.6Z" fill="#0088FF" stroke="#263238" stroke-linecap="round" stroke-linejoin="round"/>
<path d="M292.16 204.62C292.28 210.01 289.34 214.83 284.62 218.04V231.13L275.23 221.73C273.712 222.002 272.172 222.135 270.63 222.13C258.53 222.13 248.54 214.29 248.33 204.62C248.12 194.95 257.75 187.12 269.86 187.12C281.97 187.12 292 195 292.16 204.62Z" fill="white" stroke="#263238" stroke-linecap="round" stroke-linejoin="round"/>
<path d="M260.91 204.62C260.912 205.182 260.747 205.732 260.436 206.201C260.125 206.669 259.683 207.034 259.164 207.251C258.645 207.467 258.074 207.525 257.522 207.417C256.971 207.308 256.464 207.039 256.065 206.642C255.667 206.245 255.396 205.739 255.285 205.188C255.175 204.637 255.231 204.065 255.445 203.546C255.66 203.026 256.024 202.582 256.491 202.269C256.958 201.957 257.508 201.79 258.07 201.79C258.822 201.79 259.542 202.088 260.075 202.618C260.607 203.149 260.907 203.869 260.91 204.62Z" fill="#0088FF" stroke="#263238" stroke-linecap="round" stroke-linejoin="round"/>
<path d="M273.06 204.62C273.062 205.182 272.897 205.732 272.586 206.201C272.275 206.669 271.833 207.034 271.314 207.251C270.795 207.467 270.224 207.525 269.672 207.417C269.121 207.308 268.614 207.039 268.215 206.642C267.817 206.245 267.546 205.739 267.435 205.188C267.325 204.637 267.381 204.065 267.595 203.546C267.81 203.026 268.174 202.582 268.641 202.269C269.108 201.957 269.658 201.79 270.22 201.79C270.972 201.79 271.692 202.088 272.225 202.618C272.757 203.149 273.057 203.869 273.06 204.62Z" fill="#0088FF" stroke="#263238" stroke-linecap="round" stroke-linejoin="round"/>
<path d="M285.21 204.62C285.212 205.182 285.047 205.732 284.736 206.201C284.425 206.669 283.983 207.034 283.464 207.251C282.945 207.467 282.374 207.525 281.822 207.417C281.271 207.308 280.764 207.039 280.365 206.642C279.967 206.245 279.696 205.739 279.585 205.188C279.475 204.637 279.531 204.065 279.745 203.546C279.96 203.026 280.324 202.582 280.791 202.269C281.258 201.957 281.808 201.79 282.37 201.79C283.121 201.79 283.842 202.088 284.375 202.618C284.907 203.149 285.207 203.869 285.21 204.62Z" fill="#0088FF" stroke="#263238" stroke-linecap="round" stroke-linejoin="round"/>
<path d="M147.8 244.53C147.445 245.191 146.933 245.754 146.31 246.17C141.697 249.85 136.977 253.38 132.15 256.76C130.38 258 128.54 259.28 126.83 260.67C116.55 267.55 122.83 269.23 116.55 283.79C115.07 287.27 115.34 304.32 115.34 304.32H114.83C113.626 303.132 112.347 302.023 111 301C110.814 300.875 110.62 300.761 110.42 300.66C110.232 300.563 110.029 300.499 109.82 300.47C108.82 300.41 105.01 300.87 101.16 300.62L100.16 300.54C99.5999 300.48 99.0499 300.41 98.4999 300.31C97.9499 300.21 97.4199 300.1 96.9099 299.96C93.2563 298.789 89.6736 297.406 86.1799 295.82L84.4399 295.07L83.5799 294.7L82.7999 294.36L82.2399 294.12L81.6999 293.89C80.7899 293.51 79.9399 293.16 79.1599 292.89C78.8024 292.762 78.4386 292.652 78.0699 292.56C78.0699 293.38 77.9399 294.22 77.8299 295.04C77.3499 298.95 76.2799 302.56 74.3699 303.04C74.3306 303.05 74.2893 303.05 74.2499 303.04C74.0817 303.072 73.9111 303.088 73.7399 303.09H73.5899C73.1668 303.082 72.7479 303.004 72.3499 302.86C70.6165 302.12 69.1999 300.792 68.3499 299.11C67.9701 298.401 67.758 297.614 67.7299 296.81C67.7299 293.9 66.9199 276.73 66.9199 271.73C66.9199 266.73 67.9199 257.98 70.4099 254.73C71.383 253.352 72.612 252.174 74.0299 251.26C75.8544 249.739 77.947 248.573 80.1999 247.82C82.8599 246.95 88.8099 244.73 92.9599 243.16L86.6899 245.58C88.2799 248.3 91.6899 252.58 97.8399 253.13C103.62 253.62 107.2 248.39 109.03 244.57C109.19 244.63 119.25 242.72 121.58 242.83C129.17 243.16 135.36 239.05 138.16 237.42C139.005 236.916 139.952 236.608 140.932 236.521C141.912 236.434 142.899 236.57 143.819 236.918C144.74 237.266 145.569 237.818 146.247 238.532C146.924 239.245 147.431 240.103 147.73 241.04V241.13C148.167 242.217 148.192 243.426 147.8 244.53Z" fill="#0088FF" stroke="#263238" stroke-linecap="round" stroke-linejoin="round"/>
<path d="M108.92 244.63L108.46 244.47" stroke="#263238" stroke-linecap="round" stroke-linejoin="round"/>
<path d="M117.45 308.72C117.455 308.76 117.455 308.8 117.45 308.84C117.409 308.937 117.348 309.023 117.269 309.093C117.191 309.162 117.098 309.213 116.997 309.242C116.896 309.271 116.79 309.277 116.687 309.259C116.584 309.241 116.486 309.201 116.4 309.14C115.94 308.88 115.23 307.21 115.23 307.21L114.44 306.39L113.92 305.84C114 306.04 114.63 307.57 114.3 308.28C114.283 308.329 114.256 308.373 114.22 308.41C113.999 308.705 113.712 308.945 113.382 309.11C113.053 309.275 112.689 309.361 112.32 309.36C111.89 309.36 110.63 309.51 109.53 309.58H109.41C109.077 309.599 108.743 309.599 108.41 309.58C107.522 309.466 106.666 309.177 105.89 308.73C104.131 308.472 102.398 308.06 100.71 307.5L100.41 307.34L100.14 307.18C99.9624 307.073 99.798 306.945 99.65 306.8C99.0406 306.292 98.523 305.683 98.12 305C98.12 305 94.06 304.83 88.61 304.41C86.61 304.26 84.45 304.07 82.21 303.85C78.77 303.5 75.93 303.52 73.7 303.21H73.54C73.1 303.15 72.69 303.07 72.3 302.98C71.3482 302.794 70.4682 302.344 69.7607 301.68C69.0532 301.017 68.547 300.168 68.3 299.23C68.169 298.786 68.0622 298.336 67.98 297.88L69.72 294.88C70.6269 294.153 71.6382 293.566 72.72 293.14C74.3983 292.438 76.2515 292.267 78.03 292.65C78.3986 292.742 78.7624 292.852 79.12 292.98C79.9 293.28 80.75 293.63 81.66 293.98L82.21 294.21L82.77 294.45L83.55 294.79C88 296.63 93.31 299 96.86 300C97.9262 300.279 99.013 300.473 100.11 300.58L101.11 300.66C104.96 300.91 108.76 300.45 109.77 300.51C110.78 300.57 113.25 302.92 114.83 304.37C115.26 304.77 115.64 305.1 115.9 305.3L116.02 305.4L116.11 305.48C116.683 306.068 117.084 306.801 117.27 307.6C117.349 307.868 117.402 308.142 117.43 308.42C117.448 308.519 117.455 308.62 117.45 308.72Z" fill="white" stroke="#263238" stroke-linecap="round" stroke-linejoin="round"/>
<path d="M117.45 308.72C117.455 308.76 117.455 308.8 117.45 308.84C117.408 308.936 117.346 309.021 117.267 309.09C117.188 309.158 117.095 309.208 116.994 309.236C116.894 309.264 116.788 309.269 116.685 309.25C116.582 309.232 116.485 309.191 116.4 309.13C115.906 308.556 115.51 307.904 115.23 307.2L114.44 306.39L113.92 305.85C113.99 306.01 114.64 307.57 114.31 308.29C114.293 308.339 114.266 308.383 114.23 308.42C114.119 308.568 113.992 308.702 113.85 308.82C113.419 309.167 112.883 309.357 112.33 309.36C111.89 309.36 110.64 309.5 109.55 309.58H109.41C109.077 309.599 108.743 309.599 108.41 309.58C107.528 309.462 106.676 309.177 105.9 308.74C104.141 308.477 102.408 308.062 100.72 307.5L100.43 307.36L100.16 307.2C99.9871 307.086 99.8233 306.959 99.67 306.82C99.0517 306.308 98.5272 305.692 98.12 305C98.12 305 94.18 304.83 88.84 304.42C86.84 304.27 84.53 304.07 82.21 303.84C79.05 303.53 76.44 303.44 74.33 303.11L73.68 302.99L72.93 302.82C72.7571 301.595 72.8841 300.346 73.3 299.18C73.6876 298.197 74.2888 297.312 75.0601 296.589C75.8314 295.866 76.7535 295.323 77.76 295C79.0091 294.541 80.2889 294.17 81.59 293.89L82.13 294.12L82.69 294.36L83.47 294.7C88 296.65 93.25 299.01 96.81 299.98C97.8755 300.261 98.9626 300.451 100.06 300.55L101.06 300.63C104.91 300.89 108.71 300.43 109.72 300.49C110.73 300.55 113.19 302.89 114.72 304.34C115.067 304.672 115.431 304.986 115.81 305.28L115.93 305.37L116.02 305.45C116.604 306.03 117.007 306.766 117.18 307.57C117.259 307.838 117.312 308.112 117.34 308.39C117.391 308.495 117.428 308.606 117.45 308.72Z" fill="white" stroke="#263238" stroke-linecap="round" stroke-linejoin="round"/>
<path d="M105.48 306.06C105.48 306.06 107.75 307.24 108.65 307.65C109.55 308.06 109.47 309.71 109.47 309.71" fill="white"/>
<path d="M105.48 306.06C105.48 306.06 107.75 307.24 108.65 307.65C109.55 308.06 109.47 309.71 109.47 309.71" stroke="#263238" stroke-linecap="round" stroke-linejoin="round"/>
<path d="M107.91 304.46C109.338 305.479 110.713 306.571 112.03 307.73C112.222 307.956 112.348 308.231 112.392 308.524C112.436 308.818 112.397 309.118 112.28 309.39" fill="white"/>
<path d="M107.91 304.46C109.338 305.479 110.713 306.571 112.03 307.73C112.222 307.956 112.348 308.231 112.392 308.524C112.436 308.818 112.397 309.118 112.28 309.39" stroke="#263238" stroke-linecap="round" stroke-linejoin="round"/>
<path d="M113.89 305.83C112.707 304.562 111.455 303.36 110.14 302.23L113.89 305.83Z" fill="white"/>
<path d="M113.89 305.83C112.707 304.562 111.455 303.36 110.14 302.23" stroke="#263238" stroke-linecap="round" stroke-linejoin="round"/>
<path d="M108.91 244.65C107.1 248.46 103.51 253.65 97.7298 253.2C91.6098 252.68 88.1698 248.37 86.5798 245.64C88.7798 244.8 91.0098 243.94 92.8398 243.22C92.8398 241.36 92.7798 239.13 92.5798 236.92C92.5798 236.44 92.4798 235.92 92.4298 235.47C92.3798 235.02 92.3198 234.7 92.2598 234.33H103.89C103.89 234.33 103.82 234.79 103.73 235.56C103.66 236.25 103.57 237.17 103.5 238.21C103.41 239.59 103.35 241.21 103.39 242.74C103.95 242.93 104.52 243.14 105.09 243.36L106.19 243.74C106.63 243.9 107.06 244.04 107.52 244.19L108.52 244.49C108.653 244.535 108.783 244.589 108.91 244.65Z" fill="white" stroke="#263238" stroke-linecap="round" stroke-linejoin="round"/>
<path d="M92.4299 235.43C92.4299 235.43 94.5999 241.07 97.7499 242.03C100.9 242.99 103.75 235.56 103.75 235.56C103.75 235.56 99.3099 240.3 97.6599 239.56C96.0099 238.82 92.4499 235.47 92.4499 235.47" fill="#263238"/>
<path d="M90.5599 204.28C87.6211 206.926 85.2909 210.177 83.7299 213.81C82.2999 216.81 81.0899 220.26 82.1899 223.4C82.8481 224.959 83.7794 226.388 84.9399 227.62C87.0999 230.21 90.1299 237.44 92.2899 240.03C92.4299 235.42 88.5699 227.97 88.9799 224.1C89.4765 221.11 90.4595 218.222 91.8899 215.55C93.3446 212.046 95.2471 208.745 97.5499 205.73C98.8599 204.15 103.07 201.34 98.8199 201C95.9999 200.77 92.6899 202.53 90.5599 204.28Z" fill="#263238" stroke="#263238" stroke-linecap="round" stroke-linejoin="round"/>
<path d="M87.8399 220C87.8399 220 86.3499 217.11 84.7799 219.85C83.6499 221.85 85.2799 225 85.9799 226.17C86.2122 226.503 86.5268 226.77 86.8931 226.945C87.2594 227.121 87.6648 227.198 88.0699 227.17L87.8399 220Z" fill="white" stroke="#263238" stroke-linecap="round" stroke-linejoin="round"/>
<path d="M107.42 230.44C106.464 232.329 105.219 234.056 103.73 235.56L102.83 236.49C100.97 238.33 98.96 239.79 97.64 239.49C96.49 239.26 94.99 238.08 93.52 236.57C93.15 236.2 92.79 235.8 92.43 235.4C90.8295 233.649 89.4554 231.704 88.34 229.61C88.0302 228.825 87.8316 228 87.75 227.16C87.4977 224.655 87.4108 222.136 87.49 219.62C87.49 218.73 87.49 218.02 87.49 217.62C87.49 215.88 94.01 209.83 94.01 209.83C94.1857 209.766 94.3745 209.745 94.56 209.77C95.6814 209.974 96.7621 210.359 97.76 210.91C101.71 212.83 107.22 216.64 107.62 218.09C108.23 220.2 108 228.56 107.42 230.44Z" fill="white" stroke="#263238" stroke-linecap="round" stroke-linejoin="round"/>
<path d="M94.4698 222.42C94.4698 223.12 94.2098 223.69 93.9198 223.69C93.6298 223.69 93.3398 223.14 93.3398 222.42C93.3398 221.7 93.5998 221.13 93.9198 221.13C94.2398 221.13 94.4698 221.72 94.4698 222.42Z" fill="#263238"/>
<path d="M101.92 221.14C102.24 221.14 102.5 221.71 102.5 222.42C102.5 223.13 102.24 223.69 101.92 223.69C101.6 223.69 101.34 223.12 101.34 222.42C101.34 221.72 101.6 221.14 101.92 221.14Z" fill="#263238"/>
<path d="M90.75 219.27C90.75 219.27 91.75 217.27 95.29 217.88" stroke="#263238" stroke-linecap="round" stroke-linejoin="round"/>
<path d="M105.21 219.27C105.21 219.27 104.21 217.27 100.67 217.88" stroke="#263238" stroke-linecap="round" stroke-linejoin="round"/>
<path d="M98.6599 227.31C99.0196 227.288 99.3624 227.15 99.6379 226.918C99.9134 226.685 100.107 226.371 100.19 226.02C100.19 226.02 98.2499 223.02 98.8399 220.08" stroke="#263238" stroke-linecap="round" stroke-linejoin="round"/>
<path d="M86.58 213C85.7743 214.093 85.1652 215.318 84.78 216.62" stroke="white" stroke-linecap="round" stroke-linejoin="round"/>
<path d="M94.94 205C94.94 205 93.83 206.84 88.94 210.59C88.6249 210.818 88.3243 211.065 88.04 211.33" stroke="white" stroke-linecap="round" stroke-linejoin="round"/>
<path d="M79.26 263.63C78.5933 273.137 77.9267 282.65 77.26 292.17V291.44" fill="#263238"/>
<path d="M79.26 263.63C78.5933 273.137 77.9267 282.65 77.26 292.17V291.44" stroke="#263238" stroke-linecap="round" stroke-linejoin="round"/>
<path d="M142.43 232.24C143.334 231.887 144.311 231.761 145.275 231.872C146.239 231.984 147.161 232.33 147.96 232.88C149.555 234.01 150.716 235.65 151.25 237.53C151.887 239.402 151.823 241.442 151.07 243.27C150.68 244.171 150.053 244.95 149.255 245.522C148.457 246.095 147.519 246.44 146.54 246.52C145.081 246.502 143.672 245.991 142.54 245.07C138.8 242.27 136.93 234.61 142.43 232.24Z" fill="white" stroke="#263238" stroke-linecap="round" stroke-linejoin="round"/>
<path d="M150.71 200.31C150.71 200.43 150.71 201.22 150.78 201.36C151.13 202.9 151.87 206.75 150 207.53C150.71 210.06 152.45 226.59 152.22 235.02C152.16 237.54 151.72 240.53 149.46 241.61C145.65 243.42 142.03 239.01 142.46 235.56C143.13 230.85 142.9 226.05 143.46 221.29C144.07 216.35 145.19 211.29 143.96 206.46C143.66 206.13 141.74 202.32 141.11 201.27C140.827 200.821 140.605 200.337 140.45 199.83C140.204 198.104 140.083 196.363 140.09 194.62C140.66 193.54 141.4 194.54 141.79 195.25C142.108 196.116 142.218 197.044 142.11 197.96C142.073 198.184 142.104 198.414 142.2 198.62C142.284 198.738 142.397 198.831 142.529 198.891C142.661 198.951 142.806 198.975 142.95 198.96C144.18 198.78 144.13 197.75 144.11 196.96C144.11 194.31 144.11 191.66 144.11 189.03C144.11 188.59 144.25 187.4 144.67 187.36C145.09 187.32 145.72 187.66 145.78 189.07C145.85 190.66 145.85 195.56 145.85 195.56C145.889 195.6 145.939 195.63 145.993 195.646C146.047 195.661 146.105 195.663 146.16 195.65C146.26 195.65 146.3 195.47 146.34 195.37C146.93 192.91 147.53 190.45 148.12 187.99C148.19 187.7 148.62 187.1 148.93 187.1C149.67 187.1 149.69 187.96 149.73 188.21C149.99 189.53 148.14 194.97 147.83 196.21C147.83 196.43 147.83 196.76 148.06 196.7L150.96 190.85C151.094 190.508 151.306 190.202 151.578 189.956C151.851 189.71 152.176 189.53 152.53 189.43C152.579 189.415 152.631 189.415 152.68 189.43C152.732 189.46 152.774 189.506 152.8 189.56C153.08 190.06 152.8 190.75 152.64 191.3C152.48 191.85 150.31 195.89 149.54 197.52C149.43 197.75 149.25 198.27 149.47 198.52C149.69 198.77 150.09 198.29 150.25 197.96C150.74 196.96 151.2 196.02 151.65 195.04C151.79 194.75 152 194.34 152.33 194.41C154.28 194.83 151.51 198.92 150.71 200.31Z" fill="white" stroke="#263238" stroke-linecap="round" stroke-linejoin="round"/>
<path d="M145.33 199.45C146.337 200.248 147.211 201.199 147.92 202.27C148.269 202.809 148.503 203.414 148.607 204.047C148.71 204.681 148.68 205.329 148.52 205.95C148.471 206.112 148.408 206.27 148.33 206.42" fill="white"/>
<path d="M145.33 199.45C146.337 200.248 147.211 201.199 147.92 202.27C148.269 202.809 148.503 203.414 148.607 204.047C148.71 204.681 148.68 205.329 148.52 205.95C148.471 206.112 148.408 206.27 148.33 206.42" stroke="#263238" stroke-linecap="round" stroke-linejoin="round"/>
<path d="M117.16 261.92C118.218 264.054 118.93 266.343 119.27 268.7C119.56 271.06 119.65 272.91 118.04 279.54" stroke="#263238" stroke-linecap="round" stroke-linejoin="round"/>
<path d="M94.59 208.33C94.4531 208.739 94.4188 209.175 94.49 209.6C94.6798 210.135 95.0287 210.599 95.49 210.93C98.6862 213.731 102.261 216.067 106.11 217.87C106.593 217.996 107.011 218.297 107.283 218.715C107.555 219.133 107.661 219.638 107.58 220.13V227.86C107.629 228.657 107.552 229.457 107.35 230.23C106.79 232.03 105.55 233.48 104.65 235.14C103.735 236.714 103.271 238.51 103.31 240.33C103.06 238.42 109.74 234.72 111.55 227.2C111.8 226.14 117 219.83 113.88 212.42C110.88 205.31 106.16 202.25 104.57 201.88C103.491 201.565 102.352 201.511 101.248 201.723C100.143 201.935 99.1055 202.407 98.22 203.1C96.4726 204.401 95.198 206.238 94.59 208.33Z" fill="#263238" stroke="#263238" stroke-linecap="round" stroke-linejoin="round"/>
<path d="M101.14 230C100.57 230.12 99.99 230.23 99.41 230.3C97.41 230.55 95.27 230.24 93.96 228.78C94.06 230.09 94.96 235.04 97.65 235.18C100.34 235.32 101.14 230 101.14 230Z" stroke="#263238" stroke-linecap="round" stroke-linejoin="round"/>
<path d="M98.54 205.31C99.6934 207.929 101.531 210.188 103.86 211.85C105.55 213.06 107.48 213.93 109.03 215.31C111.03 217.14 112.34 220.04 111.57 222.67" stroke="white" stroke-linecap="round" stroke-linejoin="round"/>
<path d="M119.44 245.71C117.513 247.256 116.245 249.476 115.89 251.92C115.545 254.033 115.805 256.199 116.64 258.17" stroke="#263238" stroke-linecap="round" stroke-linejoin="round"/>
<path d="M82.1898 262.21C82.0298 264.83 80.3998 267.1 78.8198 269.21L82.1898 262.21Z" fill="#263238"/>
<path d="M82.1898 262.21C82.0298 264.83 80.3998 267.1 78.8198 269.21" stroke="#263238" stroke-linecap="round" stroke-linejoin="round"/>
<path d="M78.29 282.24C79.0843 283.57 80.1474 284.719 81.4113 285.615C82.6752 286.51 84.1121 287.132 85.63 287.44" stroke="#263238" stroke-linecap="round" stroke-linejoin="round"/>
<path d="M116.55 283.8C116.55 283.8 113.86 287.8 104.72 288.64" stroke="#263238" stroke-linecap="round" stroke-linejoin="round"/>
<path d="M384.3 248.75C384.3 248.75 349.45 259.55 342.89 251.02L343.78 207.51H349.07L355.29 238.16L383.85 232.93C383.85 232.93 387.51 244.27 384.3 248.75Z" fill="white"/>
<mask id="mask0_583_3" style="mask-type:luminance" maskUnits="userSpaceOnUse" x="342" y="207" width="44" height="48">
<path d="M384.3 248.75C384.3 248.75 349.45 259.55 342.89 251.02L343.78 207.51H349.07L355.29 238.16L383.85 232.93C383.85 232.93 387.51 244.27 384.3 248.75Z" fill="white"/>
</mask>
<g mask="url(#mask0_583_3)">
<path d="M369.62 250.27C367.622 251.064 365.714 252.07 363.93 253.27C366.29 254.02 368.81 253.07 371.17 252.32C374.287 251.363 377.464 250.615 380.68 250.08C380.83 249.19 379.68 247.16 379.23 246.37C378.41 244.99 378.23 244.87 376.85 245.55C374.34 246.81 372.2 249 369.62 250.27Z" fill="#0088FF"/>
</g>
<path d="M384.3 248.75C384.3 248.75 349.45 259.55 342.89 251.02L343.78 207.51H349.07L355.29 238.16L383.85 232.93C383.85 232.93 387.51 244.27 384.3 248.75Z" stroke="#263238" stroke-linecap="round" stroke-linejoin="round"/>
<path d="M380.88 249.89L387 287.57C386.84 311.99 398.49 308.32 406.58 308.25C415.93 308.17 430.12 298.9 423.16 284.47L425.84 232.24L409.55 231C404.18 230.58 382.18 231.27 380.43 234.08C375.89 241.37 380.88 249.89 380.88 249.89Z" fill="white"/>
<mask id="mask1_583_3" style="mask-type:luminance" maskUnits="userSpaceOnUse" x="378" y="230" width="48" height="79">
<path d="M380.88 249.89L387 287.57C386.84 311.99 398.49 308.32 406.58 308.25C415.93 308.17 430.12 298.9 423.16 284.47L425.84 232.24L409.55 231C404.18 230.58 382.18 231.27 380.43 234.08C375.89 241.37 380.88 249.89 380.88 249.89Z" fill="white"/>
</mask>
<g mask="url(#mask1_583_3)">
<path d="M381.84 253C385.475 266.749 394.191 278.608 406.23 286.18C404.927 285.974 403.654 285.608 402.44 285.09C401.219 284.564 399.851 284.489 398.58 284.88C398.273 284.99 397.991 285.16 397.75 285.38C397.509 285.6 397.314 285.865 397.175 286.161C397.037 286.456 396.958 286.776 396.943 287.102C396.929 287.428 396.979 287.753 397.09 288.06C397.382 288.528 397.779 288.922 398.25 289.21C400.235 290.605 402.406 291.716 404.7 292.51C402.689 292.303 400.656 292.459 398.7 292.97C398.34 294.71 400.28 295.97 401.81 296.82C404.251 298.259 406.341 300.223 407.93 302.57C402.56 302.581 397.196 302.888 391.86 303.49C391.156 303.647 390.421 303.577 389.76 303.29C389.068 302.774 388.602 302.011 388.46 301.16C387.271 296.999 386.579 292.713 386.4 288.39C386.3 285.96 386.4 283.51 386.08 281.1C385.822 279.2 385.468 277.314 385.02 275.45C383.467 268.236 382.277 260.966 381.45 253.64C381.08 253.67 381.84 253 381.84 253Z" fill="#0088FF"/>
<path d="M423.15 250C421.801 249.567 420.543 248.889 419.44 248C419.75 249.5 421.99 252.09 423.3 252.89C423.57 253.06 423.96 253.2 424.2 252.97C424.44 252.74 424.6 252.15 424.84 251.97L423.15 250Z" fill="#0088FF"/>
</g>
<path d="M380.88 249.89L387 287.57C386.84 311.99 398.49 308.32 406.58 308.25C415.93 308.17 430.12 298.9 423.16 284.47L425.84 232.24L409.55 231C404.18 230.58 382.18 231.27 380.43 234.08C375.89 241.37 380.88 249.89 380.88 249.89Z" stroke="#263238" stroke-linecap="round" stroke-linejoin="round"/>
<path d="M392.79 230.23C391.037 233.439 390.193 237.066 390.35 240.72C390.348 241.039 390.409 241.355 390.53 241.65C390.98 242.54 392.21 242.54 393.2 242.65C397.05 243.14 399.44 247.2 403.07 248.56C403.197 248.638 403.339 248.69 403.487 248.713C403.635 248.735 403.785 248.727 403.93 248.69C404.075 248.653 404.211 248.587 404.329 248.495C404.448 248.404 404.547 248.29 404.62 248.16C406.2 246.16 406.76 243.35 408.92 242.06C409.86 241.5 411.05 241.27 411.7 240.39C412.44 239.39 412.11 237.95 411.75 236.73C411.16 234.73 410.5 232.65 408.97 231.26C407.34 229.988 405.338 229.285 403.27 229.26C400.244 229.012 397.198 229.297 394.27 230.1C394.31 230.48 392.79 230.23 392.79 230.23Z" fill="#0088FF" stroke="#263238" stroke-linecap="round" stroke-linejoin="round"/>
<path d="M441.19 255.8C438.746 252.241 436.945 248.281 435.87 244.1C435.478 242.005 434.868 239.957 434.05 237.99C433.278 236.47 432.163 235.151 430.794 234.135C429.425 233.12 427.839 232.437 426.16 232.14C425.444 231.982 424.699 232.017 424 232.24C422.55 232.79 421.91 234.46 421.62 235.98C420.992 239.245 421.178 242.614 422.16 245.79C422.83 247.95 430.88 263.61 436.16 269.68C435.7 266.62 439.22 256.39 441.19 255.8Z" fill="white"/>
<mask id="mask2_583_3" style="mask-type:luminance" maskUnits="userSpaceOnUse" x="421" y="232" width="21" height="38">
<path d="M441.19 255.8C438.746 252.241 436.945 248.281 435.87 244.1C435.478 242.005 434.868 239.957 434.05 237.99C433.278 236.47 432.163 235.151 430.794 234.135C429.425 233.12 427.839 232.437 426.16 232.14C425.444 231.982 424.699 232.017 424 232.24C422.55 232.79 421.91 234.46 421.62 235.98C420.992 239.245 421.178 242.614 422.16 245.79C422.83 247.95 430.88 263.61 436.16 269.68C435.7 266.62 439.22 256.39 441.19 255.8Z" fill="white"/>
</mask>
<g mask="url(#mask2_583_3)">
<path d="M425.4 252.73L430.34 262.04C431.05 263.37 431.85 264.79 433.23 265.37C432.362 262.294 431.868 259.124 431.76 255.93C431.814 254.325 431.629 252.72 431.21 251.17C431.01 251.34 430.8 250.62 430.8 250.62C430.58 251.03 430 251.04 429.55 250.95C426.32 250.27 424.1 247.39 422.18 244.71C421.93 245.608 421.89 246.551 422.064 247.467C422.237 248.382 422.619 249.246 423.18 249.99C423.18 249.99 425.24 252.42 425.4 252.73Z" fill="#0088FF"/>
</g>
<path d="M441.19 255.8C438.746 252.241 436.945 248.281 435.87 244.1C435.478 242.005 434.868 239.957 434.05 237.99C433.278 236.47 432.163 235.151 430.794 234.135C429.425 233.12 427.839 232.437 426.16 232.14C425.444 231.982 424.699 232.017 424 232.24C422.55 232.79 421.91 234.46 421.62 235.98C420.992 239.245 421.178 242.614 422.16 245.79C422.83 247.95 430.88 263.61 436.16 269.68C435.7 266.62 439.22 256.39 441.19 255.8Z" stroke="#263238" stroke-linecap="round" stroke-linejoin="round"/>
<path d="M434.25 267C428.87 256.69 431.47 232.93 431.31 229.11L438.41 228.73C439.12 228.73 442.41 248.99 444.65 257.4C446.65 265.06 444.73 272.81 441.19 272.81C438.25 272.81 435.38 269.17 434.25 267Z" fill="white" stroke="#263238" stroke-linecap="round" stroke-linejoin="round"/>
<path d="M370.14 240.23C375.14 232.93 384.95 232.35 384.95 232.35" stroke="#263238" stroke-linecap="round" stroke-linejoin="round"/>
<path d="M350.85 244.32C352.362 242.93 353.547 241.223 354.32 239.32L350.85 244.32Z" fill="white"/>
<path d="M350.85 244.32C352.362 242.93 353.547 241.223 354.32 239.32" stroke="#263238" stroke-linecap="round" stroke-linejoin="round"/>
<path d="M388 278.82C390.85 283.49 409.31 288.48 416.67 287.41" stroke="#263238" stroke-linecap="round" stroke-linejoin="round"/>
<path d="M393.22 292C398.537 292.915 403.988 292.707 409.22 291.39" stroke="#263238" stroke-linecap="round" stroke-linejoin="round"/>
<path d="M417.71 246.69L421.23 251.46C421.71 252.11 422.38 252.84 423.17 252.66" stroke="#263238" stroke-linecap="round" stroke-linejoin="round"/>
<path d="M443.87 427.63C443.56 428.9 443.46 430.41 444.37 431.36C445.28 432.31 446.6 432.29 447.83 432.27L452.06 432.19C453.691 432.271 455.322 432.016 456.85 431.44C457.614 431.143 458.269 430.618 458.725 429.937C459.181 429.255 459.417 428.45 459.4 427.63C459.296 426.996 459.093 426.382 458.8 425.81C458.42 424.99 458.04 424.16 457.67 423.34C453 413.05 445.87 419.31 443.87 427.63Z" fill="white" stroke="#263238" stroke-linecap="round" stroke-linejoin="round"/>
<path d="M437.91 415.5C438.058 420.223 437.662 424.947 436.73 429.58C436.51 430.63 436.73 432.22 437.73 432.12C438.122 432.06 438.478 431.857 438.73 431.55C442.405 427.925 445.034 423.375 446.34 418.38C446.536 417.861 446.628 417.308 446.609 416.754C446.59 416.2 446.461 415.654 446.23 415.15C445.956 414.745 445.618 414.387 445.23 414.09C441.84 411.38 437.6 408.69 437.91 415.5Z" fill="white" stroke="#263238" stroke-linecap="round" stroke-linejoin="round"/>
<path d="M426.3 294.63C426.3 294.63 431.57 303.79 432.7 305.92C433.83 308.05 457.7 339.42 462.28 362.26C463.14 366.6 445.53 415.14 445.53 415.14L441.53 412.88C441.53 412.88 444.31 368.61 443.63 364.93C442.95 361.25 425.38 334.09 425.38 334.09C425.38 334.09 415.57 326.88 411.53 318.5L426.3 294.63Z" fill="#263238"/>
<path d="M426.87 317.58C426.87 317.58 423.87 324.26 423.87 325.22C423.87 326.18 440.37 378.32 445.22 390.38C448.287 398.147 450.99 406.093 453.33 414.22C453.33 414.22 455.21 416.69 453.79 419.22C452.37 421.75 446.72 423.41 445.56 421.15C444.4 418.89 432.97 407.15 428.15 395.47C423.33 383.79 416.55 364.27 412.69 357C407.634 347.71 403.146 338.123 399.25 328.29C394.4 315.88 389.44 302.5 389.44 302.5C391.455 302.681 393.478 302.738 395.5 302.67C400.26 302.508 404.974 301.673 409.5 300.19C420.04 296.65 424.6 289.87 424.6 289.87C424.6 289.87 427.21 296.94 427.89 298.31L426.87 317.58Z" fill="#263238"/>
<path d="M460.52 366.73C459.487 368.5 458.098 370.035 456.44 371.24" stroke="white" stroke-linecap="round" stroke-linejoin="round"/>
<path d="M461.81 363.82C461.66 364.307 461.479 364.785 461.27 365.25" stroke="white" stroke-linecap="round" stroke-linejoin="round"/>
<path d="M417.34 302C420 306.58 422.49 313.17 422.09 318.45C421.876 319.409 421.54 320.336 421.09 321.21" stroke="white" stroke-linecap="round" stroke-linejoin="round"/>
<path d="M401.24 307.09C401.53 309.64 401.92 313.88 401.36 316.38C400.887 318.937 399.42 321.202 397.28 322.68" stroke="white" stroke-linecap="round" stroke-linejoin="round"/>
<path d="M423.92 297.44C424.501 298.164 424.973 298.969 425.32 299.83C425.997 301.066 426.928 302.146 428.052 302.997C429.175 303.848 430.466 304.453 431.84 304.77" stroke="white" stroke-linecap="round" stroke-linejoin="round"/>
<path d="M415.43 307.66C418.96 315.38 421.66 323.12 427.14 336.24" stroke="white" stroke-linecap="round" stroke-linejoin="round"/>
<path d="M413.55 303.71C413.85 304.31 414.14 304.91 414.43 305.51" stroke="white" stroke-linecap="round" stroke-linejoin="round"/>
<path d="M442.93 362.77C444.548 365.888 446.606 368.757 449.04 371.29" stroke="white" stroke-linecap="round" stroke-linejoin="round"/>
<path d="M444.6 365.65C445.659 370.543 447.594 375.204 450.31 379.41" stroke="white" stroke-linecap="round" stroke-linejoin="round"/>
<path d="M419.74 365.9C411.95 349.28 403.64 332.79 393.43 307.66" stroke="white" stroke-linecap="round" stroke-linejoin="round"/>
<path d="M421.5 370.73C421.31 370.15 421.11 369.57 420.9 368.98" stroke="white" stroke-linecap="round" stroke-linejoin="round"/>
<path d="M448.43 421.83C446.43 419.22 431.85 398.83 428.23 389.59C425.82 383.43 424 379.08 422.23 372.94" stroke="white" stroke-linecap="round" stroke-linejoin="round"/>
<path d="M442.93 382.59L449.86 402.96" stroke="white" stroke-linecap="round" stroke-linejoin="round"/>
<path d="M438.26 228.74L436.16 228.91C433.499 229.383 430.766 229.256 428.16 228.54C426.49 228.13 422.62 226.93 422.16 226.85C421.01 226.604 419.849 226.417 418.68 226.29C415.15 226.08 416.94 224.76 418.41 224.82C420.35 224.91 421 224.87 422.49 224.98C422.31 224.88 421.76 224.77 421.75 224.34C421.75 223.29 423.13 223.34 423.13 223.34C423.13 223.34 421.62 222.7 421.83 221.91C422.04 221.12 423.05 220.91 423.69 220.97C423.69 220.97 422.84 220.56 422.88 220.12C423.06 218.42 426.55 218.3 426.55 218.3C425.706 217.923 424.916 217.435 424.2 216.85C423.939 216.569 423.756 216.224 423.67 215.85C423.651 215.672 423.681 215.492 423.755 215.329C423.83 215.166 423.947 215.026 424.094 214.924C424.241 214.822 424.413 214.761 424.592 214.748C424.771 214.735 424.95 214.77 425.11 214.85C426.013 215.451 426.884 216.099 427.72 216.79C428.8 217.56 430.05 218.05 431.19 218.74C432.301 219.691 433.197 220.867 433.82 222.19C434 222.47 438.26 228.74 438.26 228.74Z" fill="white" stroke="#263238" stroke-linecap="round" stroke-linejoin="round"/>
<path d="M343.78 207.51V202C343.767 199.235 344.172 196.484 344.98 193.84C345.44 192.38 345.98 191.11 346.47 190.92C347.38 190.59 347.78 194.28 347.78 194.28C347.096 191.321 346.658 188.311 346.47 185.28C346.47 182.07 350.79 195.4 350.79 195.4L349.07 207.51H343.78Z" fill="white" stroke="#263238" stroke-linecap="round" stroke-linejoin="round"/>
<path d="M349 198.55C349.523 198.147 349.913 197.597 350.12 196.97L349 198.55Z" fill="white"/>
<path d="M349 198.55C349.523 198.147 349.913 197.597 350.12 196.97" stroke="#263238" stroke-linecap="round" stroke-linejoin="round"/>
<path d="M390.88 219C392.748 222.144 393.78 225.714 393.88 229.37C394.06 235.45 401.1 243.96 403.11 244.37C405.12 244.78 406.98 234.77 406.89 231.74C406.8 228.71 405.68 220.34 405.68 220.34C405.68 220.34 396.05 213.06 390.88 219Z" fill="white" stroke="#263238" stroke-linecap="round" stroke-linejoin="round"/>
<path d="M393.71 227.05C393.71 227.05 402.94 239.64 406.56 226.84C410.18 214.04 396.41 230.34 393.71 227.05Z" fill="#263238"/>
<path d="M409.29 218C408.8 225.47 405.39 229.67 401.46 230.41C397.87 231.07 392.62 227.41 390 221.98C389.8 221.85 386.61 219.64 385.85 219.1C385.453 218.822 385.129 218.452 384.906 218.022C384.683 217.592 384.568 217.114 384.57 216.63C384.595 216.165 384.759 215.719 385.041 215.348C385.323 214.977 385.709 214.699 386.15 214.55H386.24C386.69 214.452 387.159 214.487 387.59 214.65C386.93 212.1 386.39 209.51 385.98 206.9C386.17 200.9 388.16 196 394.56 195.52C400.96 195.04 406.31 198.62 406.56 201.2C406.74 203.2 407.39 208.49 407.97 213.96C408.13 215.38 409.4 216.32 409.29 218Z" fill="white" stroke="#263238" stroke-linecap="round" stroke-linejoin="round"/>
<path d="M406.56 209.36C406.56 209.36 402.44 207.47 403.14 213.61C403.28 214.82 405.53 216.61 405.53 216.61C405.53 216.61 404.95 218.42 403.88 218.42" fill="white"/>
<path d="M406.56 209.36C406.56 209.36 402.44 207.47 403.14 213.61C403.28 214.82 405.53 216.61 405.53 216.61C405.53 216.61 404.95 218.42 403.88 218.42" stroke="#263238" stroke-linecap="round" stroke-linejoin="round"/>
<path d="M398.6 211.46C398.6 211.46 396.5 210.18 395.06 210.97C394.309 211.297 393.669 211.835 393.22 212.52" fill="white"/>
<path d="M398.6 211.46C398.6 211.46 396.5 210.18 395.06 210.97C394.309 211.297 393.669 211.835 393.22 212.52" stroke="#263238" stroke-linecap="round" stroke-linejoin="round"/>
<path d="M397.4 215C397.56 215.74 397.4 216.4 396.97 216.49C396.54 216.58 396.12 216.04 395.97 215.3C395.82 214.56 395.97 213.9 396.41 213.81C396.85 213.72 397.25 214.25 397.4 215Z" fill="#263238"/>
<path d="M405.52 212.84C405.68 213.58 405.52 214.24 405.09 214.33C404.66 214.42 404.24 213.88 404.09 213.15C403.94 212.42 404.09 211.74 404.52 211.66C404.95 211.58 405.37 212.11 405.52 212.84Z" fill="#263238"/>
<path d="M385.5 199.15C384.769 199.866 384.261 200.78 384.04 201.78C383.441 203.894 383.268 206.107 383.53 208.288C383.793 210.47 384.486 212.578 385.57 214.49C386.237 214.408 386.912 214.435 387.57 214.57C388.27 214.75 389.17 215.95 389.5 216.57C389.789 217.231 389.955 217.939 389.99 218.66C389.83 216.76 389.68 214.87 389.52 212.97C389.413 212.21 389.447 211.437 389.62 210.69C390.11 209.13 389.57 205.45 389.71 202.16C393.86 207.23 399.89 206.33 401.89 206.16C404.89 205.91 407.45 202.84 407.29 200.65C407.13 198.46 406.54 192.82 396.65 192.24C394.471 192.008 392.274 192.466 390.37 193.55C389.766 193.948 389.254 194.469 388.866 195.079C388.478 195.689 388.224 196.374 388.12 197.09C387.98 198.01 388.33 198.09 387.63 198.54C386.93 198.99 386.19 198.56 385.5 199.15Z" fill="#263238" stroke="#263238" stroke-linecap="round" stroke-linejoin="round"/>
<path d="M398.6 221.94C398.6 221.94 400.07 223.56 403.14 222.49L398.6 221.94Z" fill="white"/>
<path d="M398.6 221.94C398.6 221.94 400.07 223.56 403.14 222.49" stroke="#263238" stroke-linecap="round" stroke-linejoin="round"/>
</svg>
